# xmcd CD database file
#
# Track frame offsets:
#	150
#	21635
#	34481
#	48300
#	67978
#	88559
#	99348
#	114840
#	125628
#	136622
#	153549
#	173888
#	185956
#	200275
#	215295
#	231548
#	247757
#	260555
#	273052
#	292281
#
# Disc length: 4021 seconds
#
# Revision: 0
# Processed by: cddbd v1.5.2PL0 Copyright (c) Steve Scherf et al.
# Submitted via: CDex 1.70beta2
#
DISCID=270fb314
DTITLE=Various Artist - Country Ballads - CD3
DYEAR=1900
DGENRE=Country
TTITLE0=Willie Nelson and Merle Haggard - Pancho and Lefty
TTITLE1=Lynn Anderson - Rose Garden
TTITLE2=Loggins and Messina - My Music
TTITLE3=David Allan Coe With Lacy J. Dalton - Gotta Serve Somebody
TTITLE4=Highwayman - Desperados Waiting For A Train
TTITLE5=Tanya Tucker - Would You Lay With Me In A Field Of Stones
TTITLE6=Ricky Van Shelton - I Am A Simple Man
TTITLE7=Jim Reeves - He'll Have To Go
TTITLE8=Dolly Parton and Kris Kristofferson - Put It Off Until Tomorrow
TTITLE9=Andy Griggs - This I Gotta See
TTITLE10=Tracy Bird - Put your Hand In Mine
TTITLE11=Tammy Wynette - Stand By Your Man
TTITLE12=Charlie Rich and Janie Frickie - On My Knees
TTITLE13=Rosanne Cash and Rooney Crowell - It's Such A Small World
TTITLE14=The Charlie Daniels Band - The Devil Went Down To Georgia
TTITLE15=Merle Haggard and Janie Frickie - A Place To Fall Apart
TTITLE16=Johnny Norton - North To Alaska
TTITLE17=New Riders Of The Purple Sage - Panama Red
TTITLE18=Flying Burrito Brothers - Building Fire
TTITLE19=The Champs - Limbo Rock
EXTD=
EXTT0=
EXTT1=
EXTT2=
EXTT3=
EXTT4=
EXTT5=
EXTT6=
EXTT7=
EXTT8=
EXTT9=
EXTT10=
EXTT11=
EXTT12=
EXTT13=
EXTT14=
EXTT15=
EXTT16=
EXTT17=
EXTT18=
EXTT19=
PLAYORDER=
